<svg width="522" height="118" viewBox="0 0 522 118" fill="none" xmlns="http://www.w3.org/2000/svg">
<path d="M34.4242 117.846C44.3923 118.421 54.1585 117.378 63.6776 114.843C75.1949 111.756 85.6345 106.304 94.7496 98.9785C100.879 94.0806 106.155 88.5012 110.937 82.3682C119.558 71.0178 126.091 58.4962 130.312 44.7182H69.672C72.6131 38.0741 74.9928 31.4939 76.6767 24.5942C77.4849 21.0379 78.0462 17.6733 78.1809 14.0531C78.1809 11.4338 78.0013 8.96353 77.1481 6.51457C75.8684 2.87309 72.7478 0.381549 68.5944 0.0834159C63.5429 -0.257308 58.5588 0.466729 53.6421 1.87221C41.4288 5.36463 30.6075 13.6272 22.615 22.9545C12.3101 34.9863 5.14829 49.2328 1.73576 64.395C-0.75628 75.575 -0.98081 88.2457 3.84612 98.7868C9.32413 110.733 20.7965 117.037 34.3793 117.825L34.4242 117.846ZM11.5243 83.8589C5.35034 73.3816 10.6936 56.0473 14.892 45.3784C18.3494 36.6047 23.1539 28.5126 29.6646 21.5064C33.3016 17.6094 38.9817 12.5837 44.5046 11.7532C47.0191 11.3699 49.556 12.0513 51.0378 14.0318C51.9807 15.2669 52.1603 16.8002 52.3175 18.3334C52.2501 21.549 51.5991 24.5303 50.6786 27.6182C48.7927 33.5595 46.3007 39.1176 43.3372 44.7608H69.5373C63.9695 57.8361 55.977 70.6558 45.0659 80.1748C40.9798 83.6246 36.6917 86.5634 31.6403 88.5012C24.1641 91.3548 15.8124 91.1205 11.5243 83.8589Z" fill="black"/>
<path d="M116.257 26.7487L116.588 25.2687C108.239 25.2687 102.879 18.9746 104.614 11.21H103.023C101.287 18.9746 93.1117 25.2687 84.7635 25.2687L84.4326 26.7487C92.7815 26.7487 98.1421 33.0428 96.4063 40.8074H97.9977C99.7334 33.0434 107.909 26.7487 116.257 26.7487Z" fill="black"/>
<path d="M203.8 61.4798C203.095 64.7861 201.828 67.872 200.001 70.7375C198.179 73.5755 195.998 76.0414 193.459 78.1355C190.925 80.2019 188.115 81.8413 185.029 83.0536C181.976 84.2384 178.838 84.8308 175.614 84.8308C172.418 84.8308 169.533 84.2384 166.958 83.0536C164.417 81.8413 162.306 80.2019 160.627 78.1355C158.981 76.0414 157.853 73.5755 157.242 70.7375C156.638 67.872 156.688 64.7861 157.394 61.4798C158.111 58.1183 159.383 55.0048 161.211 52.1393C163.038 49.2738 165.219 46.8079 167.753 44.7414C170.32 42.6474 173.131 41.008 176.183 39.8232C179.264 38.6384 182.402 38.0461 185.598 38.0461C188.821 38.0461 191.713 38.6109 194.271 39.7406C196.864 40.8427 198.986 42.427 200.638 44.4934C202.296 46.5323 203.424 48.9983 204.022 51.8914C204.627 54.7569 204.553 57.953 203.8 61.4798ZM192.135 61.4798C192.523 59.6613 192.562 58.0219 192.251 56.5616C191.975 55.0737 191.425 53.8063 190.602 52.7593C189.785 51.6847 188.729 50.8719 187.432 50.3209C186.17 49.7422 184.747 49.4529 183.163 49.4529C181.58 49.4529 180.019 49.7422 178.482 50.3209C176.979 50.8719 175.589 51.6847 174.313 52.7593C173.072 53.8063 171.995 55.0737 171.084 56.5616C170.179 58.0219 169.532 59.6613 169.144 61.4798C168.779 63.188 168.738 64.7723 169.02 66.2326C169.303 67.6929 169.838 68.9604 170.627 70.0349C171.444 71.1095 172.478 71.9636 173.728 72.5973C175.013 73.2035 176.447 73.5066 178.031 73.5066C179.614 73.5066 181.161 73.2173 182.67 72.6387C184.207 72.0601 185.611 71.2472 186.881 70.2002C188.15 69.1532 189.241 67.8858 190.152 66.3979C191.092 64.9101 191.753 63.2707 192.135 61.4798Z" fill="black"/>
<path d="M255.679 61.4798C254.938 64.9514 253.654 68.12 251.826 70.9855C249.999 73.851 247.818 76.317 245.285 78.3834C242.757 80.4223 239.959 82.0066 236.89 83.1363C233.849 84.266 230.716 84.8308 227.493 84.8308C224.297 84.8308 221.409 84.2522 218.828 83.095C216.275 81.9378 214.159 80.3259 212.479 78.2594C210.827 76.193 209.696 73.7408 209.086 70.9028C208.481 68.0373 208.543 64.8963 209.272 61.4798L217.668 22.1343H229.291L224.882 42.7989C225.668 42.0274 226.565 41.3386 227.571 40.7325C228.605 40.1263 229.672 39.6303 230.773 39.2446C231.901 38.8589 233.038 38.5696 234.182 38.3767C235.332 38.1563 236.43 38.0461 237.476 38.0461C240.7 38.0461 243.585 38.6384 246.132 39.8232C248.713 40.9804 250.827 42.606 252.473 44.7001C254.118 46.7941 255.244 49.2738 255.848 52.1393C256.458 54.9773 256.402 58.0908 255.679 61.4798ZM244.014 61.4798C244.378 59.7715 244.405 58.1872 244.095 56.7269C243.818 55.239 243.272 53.9578 242.455 52.8833C241.638 51.8087 240.587 50.9683 239.302 50.3622C238.046 49.756 236.626 49.4529 235.042 49.4529C233.458 49.4529 231.886 49.7973 230.325 50.4862C228.798 51.1474 227.391 52.0429 226.104 53.1726C224.822 54.2747 223.729 55.5559 222.823 57.0162C221.924 58.4489 221.309 59.9368 220.98 61.4798C220.615 63.188 220.574 64.7723 220.857 66.2326C221.139 67.6929 221.688 68.9604 222.506 70.0349C223.323 71.1095 224.356 71.9636 225.607 72.5973C226.891 73.2035 228.326 73.5066 229.909 73.5066C231.493 73.5066 233.042 73.2035 234.557 72.5973C236.106 71.9636 237.519 71.1095 238.794 70.0349C240.07 68.9604 241.161 67.6929 242.066 66.2326C243 64.7723 243.649 63.188 244.014 61.4798Z" fill="black"/>
<path d="M282.263 84.0042H255.793L258.192 72.7627H284.661C285.453 72.7627 286.191 72.4871 286.874 71.9361C287.557 71.385 287.981 70.7237 288.146 69.9523C288.316 69.1532 288.145 68.6297 287.632 68.3817C287.12 68.1338 286.467 68.0098 285.676 68.0098H273.629C271.621 68.0098 269.82 67.6378 268.225 66.8939C266.63 66.15 265.318 65.1443 264.288 63.8769C263.263 62.5819 262.551 61.0802 262.152 59.372C261.781 57.6637 261.805 55.8314 262.222 53.8752C262.64 51.9189 263.398 50.0867 264.498 48.3784C265.626 46.6701 266.976 45.1822 268.547 43.9148C270.119 42.6474 271.857 41.6555 273.764 40.9391C275.676 40.1952 277.636 39.8232 279.643 39.8232H303.101L300.702 51.0648H277.245C276.453 51.0648 275.715 51.3403 275.032 51.8914C274.349 52.4424 273.925 53.1037 273.76 53.8752C273.59 54.6742 273.726 55.363 274.168 55.9416C274.616 56.4927 275.236 56.7682 276.027 56.7682H288.075C290.054 56.7682 291.85 57.0989 293.462 57.7601C295.08 58.3938 296.416 59.2893 297.47 60.4465C298.524 61.6037 299.259 62.9952 299.676 64.6208C300.093 66.2464 300.095 68.0236 299.684 69.9523C299.266 71.9085 298.493 73.7408 297.365 75.4491C296.243 77.1298 294.893 78.6176 293.316 79.9126C291.745 81.1801 290.003 82.1857 288.091 82.9297C286.185 83.646 284.242 84.0042 282.263 84.0042Z" fill="black"/>
<path d="M323.259 73.1759C323.683 73.3137 324.114 73.4101 324.555 73.4653C325.002 73.4928 325.451 73.5066 325.904 73.5066C327.035 73.5066 328.156 73.355 329.267 73.052C330.378 72.7489 331.445 72.3218 332.467 71.7708C333.524 71.1921 334.491 70.5033 335.369 69.7043C336.28 68.8777 337.068 67.9685 337.732 66.9766L344.443 75.2837C343.051 76.7716 341.522 78.1079 339.855 79.2927C338.217 80.4775 336.489 81.4831 334.672 82.3097C332.884 83.1363 331.041 83.7562 329.143 84.1695C327.267 84.6104 325.382 84.8308 323.487 84.8308C320.292 84.8308 317.403 84.2522 314.822 83.095C312.27 81.9378 310.153 80.3259 308.473 78.2594C306.822 76.193 305.691 73.7408 305.08 70.9028C304.476 68.0373 304.538 64.8963 305.267 61.4798C306.014 57.9805 307.304 54.7844 309.137 51.8914C310.97 48.9983 313.151 46.5323 315.679 44.4934C318.235 42.4545 321.033 40.8702 324.074 39.7406C327.143 38.6109 330.275 38.0461 333.471 38.0461C335.366 38.0461 337.171 38.2665 338.887 38.7073C340.602 39.1482 342.178 39.7819 343.614 40.6085C345.077 41.4351 346.387 42.4545 347.542 43.6668C348.703 44.8516 349.663 46.1879 350.42 47.6758L323.259 73.1759ZM334.164 49.9076C333.667 49.7147 333.157 49.5907 332.631 49.5356C332.134 49.4805 331.602 49.4529 331.037 49.4529C329.453 49.4529 327.892 49.7422 326.355 50.3209C324.852 50.8719 323.465 51.6709 322.195 52.7179C320.954 53.765 319.878 55.0324 318.966 56.5202C318.061 57.9805 317.411 59.6337 317.017 61.4798C316.929 61.893 316.843 62.3614 316.76 62.885C316.704 63.4085 316.66 63.9457 316.628 64.4968C316.629 65.0203 316.648 65.53 316.683 66.026C316.719 66.5219 316.808 66.9628 316.952 67.3485L334.164 49.9076Z" fill="black"/>
<path d="M360.102 84.0042H348.521L357.967 39.7406H360.767L363.464 44.9894C365.683 43.3362 368.075 42.0688 370.638 41.1871C373.208 40.2778 375.765 39.8232 378.31 39.8232H388.533L386.135 51.0648H375.912C374.696 51.0648 373.503 51.2852 372.334 51.726C371.166 52.1669 370.103 52.7731 369.147 53.5445C368.19 54.316 367.374 55.2253 366.698 56.2723C366.022 57.3193 365.558 58.4352 365.305 59.6199L360.102 84.0042Z" fill="black"/>
<path d="M397.388 84.0042L389.527 39.7406H402.719L406.754 67.3485L422.529 39.7406H435.764L409.011 84.0042H397.388Z" fill="black"/>
<path d="M444.134 84.0042H431.96L444.607 24.738H456.781L444.134 84.0042Z" fill="black"/>
<path d="M504.383 95.8657H490.555L485.534 85.2028C485.126 85.2579 484.739 85.2854 484.371 85.2854C484.032 85.2854 483.692 85.2854 483.353 85.2854C480.468 85.2854 477.762 84.9135 475.234 84.1695C472.729 83.4532 470.444 82.4337 468.379 81.1112C466.348 79.7611 464.571 78.1492 463.048 76.2756C461.525 74.4021 460.311 72.3356 459.408 70.0762C458.538 67.7894 457.998 65.3509 457.787 62.761C457.611 60.1434 457.822 57.4295 458.422 54.6191C459.022 51.8087 459.968 49.0947 461.262 46.4772C462.584 43.8597 464.165 41.4213 466.005 39.1619C467.873 36.9026 469.968 34.8361 472.291 32.9626C474.614 31.089 477.075 29.4909 479.677 28.1684C482.306 26.8458 485.026 25.8264 487.837 25.11C490.683 24.3661 493.548 23.9941 496.432 23.9941C499.317 23.9941 502.023 24.3661 504.551 25.11C507.084 25.8264 509.369 26.8458 511.406 28.1684C513.443 29.4909 515.223 31.089 516.746 32.9626C518.269 34.8361 519.468 36.9026 520.344 39.1619C521.219 41.4213 521.745 43.8597 521.922 46.4772C522.127 49.0947 521.929 51.8087 521.33 54.6191C520.706 57.5397 519.677 60.3776 518.24 63.1329C516.832 65.8882 515.109 68.4644 513.07 70.8615C511.037 73.231 508.726 75.3802 506.137 77.3089C503.577 79.2376 500.829 80.8494 497.894 82.1444L504.383 95.8657ZM509.24 54.6191C509.793 52.0291 509.804 49.5907 509.274 47.3038C508.75 44.9894 507.79 42.9918 506.396 41.3111C505.035 39.6028 503.273 38.2527 501.109 37.2608C498.974 36.2689 496.577 35.7729 493.919 35.7729C491.232 35.7729 488.609 36.2689 486.05 37.2608C483.492 38.2527 481.153 39.6028 479.035 41.3111C476.923 42.9918 475.111 44.9894 473.599 47.3038C472.093 49.5907 471.064 52.0291 470.511 54.6191C469.959 57.2091 469.947 59.6475 470.477 61.9344C471.013 64.1937 471.976 66.1775 473.365 67.8858C474.753 69.5941 476.515 70.9442 478.651 71.9361C480.787 72.928 483.198 73.4239 485.884 73.4239C488.542 73.4239 491.151 72.928 493.71 71.9361C496.297 70.9442 498.635 69.5941 500.725 67.8858C502.843 66.1775 504.652 64.1937 506.152 61.9344C507.658 59.6475 508.687 57.2091 509.24 54.6191Z" fill="black"/>
</svg>
